<svg width="31" height="33" viewBox="0 0 31 33" fill="none" xmlns="http://www.w3.org/2000/svg">
<path d="M4.5748 0C5.90399 9.79554e-05 7.03628 0.982503 7.24536 2.31738L7.86379 6.26953H29.2167C30.34 6.26953 31.1621 7.34636 30.8838 8.45312L29.0151 15.8867C28.5977 17.5464 27.1273 18.7078 25.4428 18.708H9.81029L10.2146 21.2891C10.3097 21.8958 10.8242 22.3418 11.4284 22.3418H27.7331V23.8418H11.4284C10.099 23.8418 8.96677 22.8595 8.75781 21.5244L5.78861 2.55371C5.69364 1.94691 5.17899 1.5001 4.5748 1.5H0V0H4.5748ZM9.57598 17.208H25.4428C26.4533 17.2078 27.3357 16.5112 27.5861 15.5156L29.4549 8.08105C29.4946 7.92297 29.3772 7.76953 29.2167 7.76953H8.09906L9.57598 17.208Z" fill="black"/>
<path d="M14.768 29.5164C14.768 28.6021 14.0793 27.9558 13.3429 27.9558C12.6067 27.9559 11.9179 28.6021 11.9179 29.5164C11.918 30.4304 12.6068 31.0758 13.3429 31.0759V32.5759C11.7913 32.5758 10.5244 31.2904 10.4467 29.6736L10.4429 29.5164C10.4429 27.8263 11.7413 26.4559 13.3429 26.4558C14.9447 26.4558 16.243 27.8263 16.243 29.5164L16.2392 29.6736C16.1614 31.2904 14.8946 32.5759 13.3429 32.5759V31.0759C14.0792 31.0759 14.7678 30.4305 14.768 29.5164Z" fill="black"/>
<path d="M27.5292 29.5164C27.5292 28.6021 26.8405 27.9558 26.1042 27.9558C25.3679 27.9559 24.6791 28.6021 24.6791 29.5164C24.6793 30.4304 25.368 31.0758 26.1042 31.0759V32.5759C24.5526 32.5758 23.2857 31.2904 23.2079 29.6736L23.2041 29.5164C23.2041 27.8263 24.5025 26.4559 26.1042 26.4558C27.7059 26.4558 29.0042 27.8263 29.0042 29.5164L29.0004 29.6736C28.9227 31.2904 27.6558 32.5759 26.1042 32.5759V31.0759C26.8404 31.0759 27.5291 30.4305 27.5292 29.5164Z" fill="black"/>
</svg>
