<svg width="26" height="25" viewBox="0 0 26 25" fill="none" xmlns="http://www.w3.org/2000/svg">
<path d="M25.5232 12.5275L25.5015 12.5386L21.8336 3.25484H23.5072C23.8073 3.25484 24.0506 3.00741 24.0506 2.70223C24.0506 2.39706 23.8073 2.14963 23.5072 2.14963H13.2805V0.552604C13.2805 0.247428 13.0372 0 12.7371 0C12.4371 0 12.1938 0.247428 12.1938 0.552604V2.1441H1.97252C1.67243 2.1441 1.42913 2.39153 1.42913 2.69671C1.42913 3.00188 1.67243 3.24931 1.97252 3.24931H3.71681L0.0434715 12.5275C0.0163018 12.5922 0.00156226 12.6617 0 12.732C0 15.2697 2.02292 17.3269 4.51832 17.3269C7.01372 17.3269 9.03663 15.2697 9.03663 12.732C9.03507 12.6617 9.02033 12.5922 8.99316 12.5275L5.32526 3.24378H12.1938V20.3303C9.60176 20.5292 7.57491 22.1318 7.57491 24.0714C7.57491 24.3766 7.81821 24.624 8.1183 24.624H17.356C17.6561 24.624 17.8994 24.3766 17.8994 24.0714C17.8994 22.1318 15.8725 20.5292 13.2805 20.3303V3.24378H20.2197L16.5735 12.5275C16.5463 12.5922 16.5316 12.6617 16.53 12.732C16.53 15.2697 18.553 17.3269 21.0484 17.3269C23.5437 17.3269 25.5667 15.2697 25.5667 12.732C25.5651 12.6617 25.5504 12.5922 25.5232 12.5275ZM4.5156 16.23C2.83257 16.2276 1.39924 14.9852 1.13026 13.2956H7.87921C7.61158 14.977 6.19041 16.2168 4.5156 16.23ZM7.68359 12.1904H1.35848L4.52647 4.17216L7.68359 12.1904ZM16.7148 23.5188H8.75407C9.15618 22.3307 10.8135 21.4134 12.7317 21.4134C14.6499 21.4134 16.3127 22.3307 16.7148 23.5188ZM21.0239 4.17768L24.181 12.1904H17.8559L21.0239 4.17768ZM21.0239 16.23V16.2355C19.3473 16.2219 17.9255 14.9792 17.6603 13.2956H24.4092C24.1403 14.9852 22.7069 16.2276 21.0239 16.23Z" fill="black"/>
</svg>
