<svg width="28" height="27" viewBox="0 0 28 27" fill="none" xmlns="http://www.w3.org/2000/svg">
<path d="M19.7654 0C17.4216 0 15.2275 1.07339 13.7667 2.87184C12.3058 1.07333 10.1118 0 7.76791 0C3.48469 0 0 3.52462 0 7.85705C0 11.2495 1.99995 15.1734 5.94417 19.5198C8.97956 22.8646 12.2816 25.4544 13.2213 26.1685L13.7665 26.5828L14.3117 26.1686C15.2514 25.4545 18.5535 22.8647 21.589 19.52C25.5333 15.1736 27.5333 11.2496 27.5333 7.85705C27.5333 3.52462 24.0486 0 19.7654 0ZM20.2516 18.2782C17.7549 21.0293 15.0688 23.2533 13.7665 24.2783C12.4642 23.2533 9.77827 21.0293 7.28157 18.2781C3.70556 14.3375 1.81538 10.734 1.81538 7.85705C1.81538 4.53717 4.48569 1.83622 7.76791 1.83622C9.92785 1.83622 11.9222 3.02694 12.9728 4.94377L13.7667 6.3923L14.5605 4.94377C15.611 3.027 17.6054 1.83622 19.7654 1.83622C23.0476 1.83622 25.7179 4.53711 25.7179 7.85705C25.7179 10.7341 23.8277 14.3377 20.2516 18.2782Z" fill="black"/>
</svg>
