<svg width="11" height="17" viewBox="0 0 11 17" fill="none" xmlns="http://www.w3.org/2000/svg">
<path d="M5.40833 0C2.42618 0 0 2.60071 0 5.7974C0 6.87745 0.2791 7.93148 0.807314 8.84592L5.10048 16.262C5.18272 16.4041 5.3276 16.4904 5.48342 16.4904C5.48462 16.4904 5.48579 16.4904 5.48699 16.4904C5.64417 16.489 5.78935 16.4001 5.87009 16.2555L10.0538 8.76759C10.5529 7.87248 10.8167 6.8454 10.8167 5.7974C10.8167 2.60071 8.39049 0 5.40833 0ZM9.28028 8.27153L5.4766 15.0792L1.57343 8.33685C1.13377 7.57571 0.89538 6.6976 0.89538 5.7974C0.89538 3.13349 2.9232 0.959791 5.40833 0.959791C7.89346 0.959791 9.91828 3.13349 9.91828 5.7974C9.91828 6.6709 9.69561 7.52657 9.28028 8.27153Z" fill="white"/>
<path d="M5.40844 2.44336C3.75169 2.44336 2.40381 3.81328 2.40381 5.49713C2.40381 7.17022 3.72975 8.5509 5.40844 8.5509C7.10782 8.5509 8.41307 7.15183 8.41307 5.49713C8.41307 3.81328 7.06519 2.44336 5.40844 2.44336ZM5.40844 7.53976C4.29816 7.53976 3.39867 6.62251 3.39867 5.49713C3.39867 4.37456 4.30394 3.4545 5.40844 3.4545C6.51294 3.4545 7.41486 4.37456 7.41486 5.49713C7.41486 6.60609 6.53631 7.53976 5.40844 7.53976Z" fill="white"/>
</svg>
