<svg width="18" height="13" viewBox="0 0 18 13" fill="none" xmlns="http://www.w3.org/2000/svg">
<path d="M17.2998 1.40039L9.90039 6.9502C9.36706 7.35019 8.63294 7.3502 8.09961 6.9502L0.700195 1.40039L1.2998 0.599609L8.7002 6.15039C8.87784 6.28341 9.12216 6.28341 9.2998 6.15039L16.7002 0.599609L17.2998 1.40039Z" fill="white"/>
<path d="M16 12V13H2V12H16ZM17 11V2C17 1.44772 16.5523 1 16 1H2C1.44772 1 1 1.44772 1 2V11C1 11.5523 1.44772 12 2 12V13L1.7959 12.9893C0.787223 12.887 0 12.0357 0 11V2C0 0.895431 0.895431 0 2 0H16C17.1046 0 18 0.895431 18 2V11C18 12.1046 17.1046 13 16 13V12C16.5523 12 17 11.5523 17 11Z" fill="white"/>
</svg>
