<svg width="15" height="16" viewBox="0 0 15 16" fill="none" xmlns="http://www.w3.org/2000/svg">
<path d="M14.3708 11.6797L12.5371 9.7111C12.0316 9.1684 11.2089 9.1684 10.7034 9.7111L9.8699 10.6059C9.4869 11.0171 8.86368 11.0169 8.48083 10.6061L4.86807 6.72429C4.48418 6.31217 4.48412 5.64513 4.86807 5.23294C5.00233 5.08882 5.38783 4.67496 5.70157 4.33815C6.20491 3.79782 6.21194 2.91744 5.70108 2.36907L3.86785 0.407207C3.3623 -0.135498 2.53969 -0.135498 2.03549 0.405784C1.65819 0.8073 1.5365 0.936829 1.36733 1.11686C-0.455761 3.074 -0.455761 6.25851 1.36724 8.21558L7.09153 14.3641C8.91888 16.3258 11.8765 16.326 13.704 14.3641L14.3708 13.6482C14.8764 13.1055 14.8764 12.2224 14.3708 11.6797ZM2.64539 1.06339C2.8139 0.882488 3.08805 0.882457 3.25711 1.06388L5.09034 3.02575C5.25925 3.20709 5.25925 3.50057 5.09034 3.68193L4.7847 4.01002L2.34133 1.38696L2.64539 1.06339ZM7.70288 13.708L1.97856 7.55943C0.568084 6.04522 0.490556 3.66758 1.74013 2.05394L4.1764 4.66939C3.53625 5.44845 3.56293 6.63559 4.2567 7.38038L7.86934 11.262C7.86937 11.262 7.86943 11.2621 7.86946 11.2621C8.56248 12.0061 9.66823 12.0366 10.3948 11.3484L12.8311 13.9639C11.3328 15.3031 9.12306 15.2326 7.70288 13.708ZM13.7596 12.992L13.454 13.3202L11.009 10.6954L11.3146 10.3673C11.4832 10.1864 11.7573 10.1864 11.9259 10.3673L13.7596 12.3359C13.9281 12.5168 13.9281 12.8112 13.7596 12.992Z" fill="white"/>
</svg>
