<svg width="17" height="25" viewBox="0 0 17 25" fill="none" xmlns="http://www.w3.org/2000/svg">
<path d="M8.35833 0C3.74955 0 0 3.85087 0 8.5842C0 10.1834 0.431337 11.7441 1.24767 13.0982L7.88256 24.0791C8.00965 24.2895 8.23356 24.4173 8.47438 24.4173C8.47623 24.4173 8.47804 24.4173 8.4799 24.4173C8.7228 24.4153 8.94718 24.2836 9.07195 24.0695L15.5377 12.9822C16.309 11.6568 16.7167 10.136 16.7167 8.5842C16.7167 3.85087 12.9671 0 8.35833 0ZM14.3422 12.2477L8.46383 22.3278L2.43167 12.3444C1.75219 11.2174 1.38377 9.91714 1.38377 8.5842C1.38377 4.63976 4.51768 1.42116 8.35833 1.42116C12.199 1.42116 15.3283 4.63976 15.3283 8.5842C15.3283 9.87761 14.9841 11.1446 14.3422 12.2477Z" fill="black"/>
<path d="M8.35502 3.61737C5.79454 3.61737 3.71143 5.64581 3.71143 8.13909C3.71143 10.6164 5.76064 12.6608 8.35502 12.6608C10.9814 12.6608 12.9986 10.5892 12.9986 8.13909C12.9986 5.64581 10.9155 3.61737 8.35502 3.61737ZM8.35502 11.1636C6.63911 11.1636 5.24897 9.80544 5.24897 8.13909C5.24897 6.47691 6.64803 5.11456 8.35502 5.11456C10.062 5.11456 11.4559 6.47691 11.4559 8.13909C11.4559 9.78113 10.0981 11.1636 8.35502 11.1636Z" fill="black"/>
</svg>
