<svg width="187" height="43" viewBox="0 0 187 43" fill="none" xmlns="http://www.w3.org/2000/svg">
<path fill-rule="evenodd" clip-rule="evenodd" d="M94.3188 38.3538C94.3188 38.3538 95.4263 37.8078 97.3686 37.0732C98.3695 37.56 100.563 38.5741 102.687 39.1981C105.561 40.0425 107.478 39.9125 110.161 39.9125C112.843 39.9125 116.676 39.4578 116.676 39.4578C116.676 39.4578 116.101 37.3144 116.037 35.7554C115.973 34.1961 115.973 33.9364 115.973 33.9364C115.973 33.9364 115.398 36.1451 115.526 37.3144C115.654 38.4834 115.654 38.8734 115.654 38.8734C115.654 38.8734 110.608 39.3931 107.031 39.0031C103.453 38.6134 101.282 38.2234 99.7486 37.7041C98.9038 37.4175 98.0981 37.171 97.5447 37.0069C100.255 35.9923 104.495 34.6479 109.585 33.8717C118.528 32.5074 116.74 32.962 116.74 32.962C116.74 32.962 116.931 32.5723 118.081 32.4427C119.231 32.3127 130.984 31.728 134.625 31.9877C138.266 32.2474 148.295 32.7673 149.764 33.7417C151.233 34.716 151.808 35.6904 151.361 38.0938C150.914 40.4974 150.02 42.8361 149.189 42.3162C148.359 41.7965 145.548 39.5881 142.865 39.1981C140.183 38.8084 137.244 38.8734 136.03 39.1981C134.817 39.5231 132.773 40.8222 131.815 40.4975C130.856 40.1728 128.94 38.3538 127.407 39.0034C125.874 39.6531 125.81 39.8478 125.107 40.7571C124.405 41.6668 123.447 42.7062 122.68 41.7318C121.914 40.7572 120.508 40.3025 119.295 40.2375C118.081 40.1728 116.995 40.5625 116.676 40.8871C116.356 41.2121 115.909 41.8615 115.909 41.8615C115.909 41.8615 113.929 41.3421 111.629 41.6018C109.33 41.8615 105.37 42.0565 102.687 41.5368C100.004 41.0171 94.3188 38.3538 94.3188 38.3538ZM118.464 39.1331C118.464 39.1331 121.02 38.6784 121.978 39.3928C122.936 40.1075 123.127 40.6922 124.852 39.2631C126.577 37.8338 127.663 36.7944 129.579 37.8338C131.495 38.8734 132.39 39.5228 134.242 38.5485C136.094 37.5741 140.119 36.5348 143.504 37.9638C146.89 39.3928 149.509 41.6665 150.02 40.2375C150.531 38.8081 150.786 37.2491 148.167 36.6647C145.548 36.0801 141.652 35.4304 138.075 36.0151C134.497 36.5997 133.859 38.2885 132.39 37.8338C130.92 37.3791 129.324 36.0151 127.535 36.7294C125.746 37.4441 124.213 39.6528 122.744 38.9381C121.275 38.2238 120.253 37.5741 119.359 38.0288C118.464 38.4835 118.464 39.1331 118.464 39.1331Z" fill="#1F1C21"/>
<path d="M1.49635 0.342795V10.0029H1.93391C1.96771 9.44913 2.05191 8.88944 2.19234 8.33008C2.32693 7.76478 2.50085 7.22263 2.71995 6.70296C2.9332 6.18891 3.18025 5.7211 3.4608 5.2983C3.73613 4.88175 4.03911 4.54456 4.35961 4.28175C4.59529 4.08238 4.89828 3.89365 5.27439 3.71115C5.65051 3.52834 6.09976 3.37991 6.62184 3.26585C7.14975 3.14585 7.7505 3.08868 8.43513 3.08305H15.5764L0.552979 24.1162L0.620272 24.3219H22.3474V13.2228H21.9095C21.8757 13.8512 21.8137 14.4902 21.7239 15.1355C21.6287 15.7808 21.4996 16.409 21.3312 17.0196C21.157 17.6305 20.9379 18.1958 20.6687 18.7211C20.3992 19.2408 20.0735 19.6917 19.686 20.0742C19.1977 20.5367 18.6812 20.8735 18.1422 21.0907C17.5977 21.3076 17.0587 21.4444 16.5139 21.5016C15.9752 21.5644 15.4587 21.587 14.9701 21.5813H7.55937L22.5158 0.548112L22.3474 0.342795H1.49635ZM29.1181 20.4854C29.1236 20.7648 29.1125 21.0504 29.0791 21.3473C29.0508 21.6441 28.9721 21.941 28.8544 22.2266C28.7364 22.5122 28.5398 22.7804 28.2761 23.0204C28.0232 23.2313 27.743 23.3972 27.4225 23.5057C27.1085 23.62 26.7827 23.6997 26.446 23.7453C26.1089 23.791 25.789 23.825 25.4802 23.8425L24.9077 23.8766V24.3219H48.5544V13.9078H48.1165L48.0158 14.9702C47.9651 15.5352 47.8864 16.0949 47.7856 16.6655C47.6787 17.2308 47.5103 17.7789 47.2691 18.3098C47.0331 18.8467 46.6852 19.3376 46.2304 19.8001C46.09 19.9486 45.8823 20.1257 45.6128 20.3251C45.343 20.5251 45.001 20.7195 44.5797 20.9076C44.1587 21.102 43.6532 21.2617 43.0639 21.3876C42.4742 21.5129 41.7896 21.5757 41.0091 21.5813H33.295V4.17925C33.2895 3.97925 33.3005 3.72833 33.3346 3.43146C33.3626 3.1346 33.4409 2.82618 33.5589 2.5065C33.6828 2.18651 33.8733 1.90152 34.1373 1.64434C34.3788 1.42747 34.6594 1.26746 34.9792 1.15933C35.3053 1.04496 35.6362 0.964981 35.9788 0.919044C36.3156 0.873733 36.6358 0.839341 36.9333 0.822153L37.506 0.788097V0.342795H24.9077V0.788097L25.4802 0.822153C25.7779 0.839341 26.0978 0.873733 26.4404 0.919044C26.7769 0.964981 27.1085 1.04496 27.4339 1.15933C27.7541 1.26746 28.0349 1.42747 28.2761 1.64434C28.5398 1.90152 28.7364 2.18651 28.8544 2.5065C28.9721 2.82618 29.0508 3.1346 29.0791 3.43146C29.1125 3.72833 29.1236 3.97925 29.1181 4.17925V20.4854ZM60.9844 0L53.6409 18.0189C53.3941 18.6067 53.1695 19.1092 52.9673 19.5204C52.7651 19.9314 52.5912 20.2742 52.4397 20.5479C52.2879 20.8163 52.1589 21.0335 52.0581 21.2045C51.9511 21.3876 51.7996 21.6101 51.6143 21.8613C51.429 22.1123 51.1934 22.3694 50.907 22.6319C50.6261 22.8891 50.2896 23.1232 49.8908 23.3288C49.4978 23.5341 49.043 23.6825 48.5209 23.7741L47.8808 23.8766V24.3219H59.974V23.8766L59.1318 23.8081C58.8008 23.7853 58.4468 23.7281 58.0707 23.6369C57.6946 23.5456 57.3409 23.4028 57.0038 23.2144C56.6673 23.026 56.3865 22.7804 56.1677 22.4719C55.9876 22.2154 55.8644 21.9129 55.7916 21.5588C55.724 21.2104 55.7012 20.8504 55.7353 20.4798C55.763 20.1145 55.8417 19.7717 55.9655 19.4576L57.2456 16.2718H65.8689L67.3848 20.0401C67.4745 20.251 67.5476 20.4798 67.6149 20.7307C67.6822 20.9876 67.7157 21.2335 67.7216 21.4788C67.7157 21.9869 67.6205 22.3922 67.4296 22.6891C67.2444 22.9916 67.0028 23.2144 66.7112 23.3628C66.5591 23.4541 66.3741 23.5282 66.1609 23.5853C65.9473 23.6425 65.6895 23.6941 65.3748 23.7338C65.0605 23.7741 64.673 23.8081 64.2185 23.8425L63.713 23.8766V24.3219H76.9179V23.8766L76.3787 23.8425C75.9801 23.8194 75.5868 23.7509 75.1996 23.6369C74.8124 23.5281 74.4584 23.3853 74.133 23.2144C73.8018 23.0432 73.532 22.8488 73.3132 22.6438C73.1168 22.4438 72.9257 22.181 72.7463 21.8613C72.561 21.536 72.3588 21.1076 72.1286 20.571C71.904 20.0401 71.6231 19.3608 71.2922 18.5326L63.8479 0H60.9844ZM65.027 13.8737H58.0876L61.5236 5.44673H61.5909L65.027 13.8737ZM87.0909 3.08305H89.5836C89.7799 3.07743 90.0273 3.08868 90.3248 3.1118C90.6222 3.13461 90.9421 3.18024 91.2902 3.26023C91.6384 3.33429 91.9862 3.45398 92.3344 3.61429C92.6881 3.77991 93.0138 4.00239 93.3226 4.28175C93.6035 4.54456 93.856 4.89298 94.0862 5.33266C94.3105 5.77202 94.513 6.25763 94.6811 6.78856C94.8553 7.32511 94.9955 7.86791 95.1024 8.41571C95.2087 8.96382 95.2763 9.48319 95.3101 9.96881H95.748V0.342795H74.2569V9.96881H74.6947C74.7282 9.48319 74.8011 8.96382 74.908 8.41571C75.0091 7.86791 75.1492 7.32511 75.3232 6.78856C75.4919 6.25763 75.6937 5.77202 75.9242 5.33266C76.1488 4.89298 76.4014 4.54456 76.682 4.28175C76.9908 4.00239 77.3165 3.77991 77.6699 3.61429C78.0183 3.45398 78.3665 3.33429 78.7147 3.26023C79.0625 3.18024 79.3827 3.13461 79.6801 3.1118C79.9776 3.08868 80.2246 3.07743 80.4213 3.08305H82.914V20.4854C82.9195 20.6851 82.9085 20.9363 82.8744 21.2335C82.8464 21.5304 82.768 21.8385 82.65 22.1582C82.5323 22.4719 82.3357 22.7632 82.0717 23.0204C81.8302 23.2313 81.5496 23.3972 81.2298 23.5057C80.9037 23.62 80.5728 23.6941 80.2357 23.7453C79.8934 23.791 79.5732 23.8194 79.2757 23.8425L78.703 23.8766V24.3219H91.3013V23.8766L90.7288 23.8425C90.4311 23.8194 90.1112 23.791 89.7744 23.7453C89.4321 23.6941 89.1005 23.62 88.7751 23.5057C88.4549 23.3972 88.1747 23.2313 87.9328 23.0204C87.6692 22.7632 87.4781 22.4719 87.3546 22.1582C87.2369 21.8385 87.1582 21.5304 87.1299 21.2335C87.0964 20.9363 87.0854 20.6851 87.0909 20.4854V3.08305ZM130.006 0.342795H119.901L113.601 16.6146H113.5L107.201 0.342795H96.6914V0.788097L97.2642 0.822153C97.5616 0.839341 97.8815 0.873733 98.2241 0.919044C98.5606 0.964981 98.8921 1.04496 99.2175 1.15933C99.5377 1.26746 99.8186 1.42747 100.06 1.64434C100.323 1.90152 100.52 2.18651 100.638 2.5065C100.756 2.82618 100.834 3.1346 100.863 3.43146C100.896 3.72833 100.907 3.97925 100.902 4.17925V19.8001C100.907 20.0629 100.891 20.3823 100.857 20.7592C100.823 21.136 100.745 21.5185 100.622 21.9013C100.504 22.2838 100.312 22.6091 100.06 22.8835C99.841 23.1004 99.5602 23.2772 99.2292 23.4144C98.8976 23.5513 98.555 23.6541 98.2072 23.7225C97.8535 23.791 97.5392 23.8309 97.2642 23.8425L96.6914 23.8766V24.3219H108.043V23.8766L107.471 23.8425C107.196 23.8309 106.881 23.791 106.528 23.7225C106.179 23.6541 105.837 23.5513 105.505 23.4144C105.175 23.2772 104.894 23.1004 104.675 22.8835C104.473 22.6719 104.315 22.4266 104.203 22.141C104.085 21.8557 104.001 21.5644 103.951 21.2616C103.9 20.9648 103.866 20.6851 103.85 20.4282C103.838 20.1654 103.833 19.9601 103.833 19.8001V3.66553H103.934L111.951 24.3219H113.5L121.517 3.66553H121.619V20.4854C121.624 20.6851 121.613 20.9363 121.579 21.2335C121.551 21.5304 121.478 21.8385 121.355 22.1582C121.237 22.4719 121.04 22.7632 120.776 23.0204C120.535 23.2313 120.254 23.3972 119.934 23.5057C119.609 23.62 119.277 23.6941 118.941 23.7453C118.598 23.791 118.278 23.8194 117.98 23.8425L117.408 23.8766V24.3219H130.006V23.8766L129.433 23.8425C129.136 23.8194 128.816 23.791 128.479 23.7453C128.136 23.6941 127.805 23.62 127.486 23.5057C127.159 23.3972 126.879 23.2313 126.637 23.0204C126.373 22.7632 126.183 22.4719 126.059 22.1582C125.942 21.8385 125.863 21.5304 125.835 21.2335C125.807 20.9363 125.79 20.6851 125.796 20.4854V4.17925C125.79 3.97925 125.807 3.72833 125.835 3.43146C125.863 3.1346 125.942 2.82618 126.059 2.5065C126.183 2.18651 126.373 1.90152 126.637 1.64434C126.879 1.42747 127.159 1.26746 127.486 1.15933C127.805 1.04496 128.136 0.964981 128.479 0.919044C128.816 0.873733 129.136 0.839341 129.433 0.822153L130.006 0.788097V0.342795ZM142.369 0L135.025 18.0189C134.778 18.6067 134.554 19.1092 134.351 19.5204C134.149 19.9314 133.975 20.2742 133.824 20.5479C133.672 20.8163 133.543 21.0335 133.442 21.2045C133.335 21.3876 133.184 21.6101 132.998 21.8613C132.813 22.1123 132.578 22.3694 132.291 22.6319C132.01 22.8891 131.674 23.1232 131.275 23.3288C130.882 23.5341 130.427 23.6825 129.905 23.7741L129.265 23.8766V24.3219H141.358V23.8766L140.516 23.8081C140.185 23.7853 139.831 23.7281 139.455 23.6369C139.079 23.5456 138.725 23.4028 138.388 23.2144C138.051 23.026 137.771 22.7804 137.552 22.4719C137.372 22.2154 137.249 21.9129 137.176 21.5588C137.108 21.2104 137.085 20.8504 137.119 20.4798C137.147 20.1145 137.226 19.7717 137.35 19.4576L138.63 16.2718H147.253L148.769 20.0401C148.859 20.251 148.932 20.4798 148.999 20.7307C149.066 20.9876 149.1 21.2335 149.106 21.4788C149.1 21.9869 149.005 22.3922 148.814 22.6891C148.628 22.9916 148.387 23.2144 148.095 23.3628C147.943 23.4541 147.758 23.5282 147.545 23.5853C147.331 23.6425 147.074 23.6941 146.759 23.7338C146.445 23.7741 146.057 23.8081 145.603 23.8425L145.097 23.8766V24.3219H158.302V23.8766L157.763 23.8425C157.364 23.8194 156.971 23.7509 156.584 23.6369C156.197 23.5281 155.843 23.3853 155.517 23.2144C155.186 23.0432 154.916 22.8488 154.697 22.6438C154.501 22.4438 154.31 22.181 154.13 21.8613C153.945 21.536 153.743 21.1076 153.513 20.571C153.288 20.0401 153.007 19.3608 152.676 18.5326L145.232 0H142.369ZM146.411 13.8737H139.472L142.908 5.44673H142.975L146.411 13.8737ZM157.09 0.342795V0.788097L157.729 0.92527C158.139 1.02214 158.561 1.20466 158.992 1.46746C159.425 1.72996 159.84 2.03243 160.239 2.38086C160.637 2.72929 160.991 3.07743 161.3 3.42554L169.081 12.2297L162.512 20.0058C162.4 20.1486 162.238 20.3195 162.036 20.5251C161.833 20.7307 161.609 20.9479 161.373 21.1704C161.132 21.3932 160.907 21.5988 160.688 21.787C160.475 21.9757 160.295 22.1241 160.155 22.2323C159.627 22.6263 159.054 22.9688 158.437 23.2488C157.825 23.5281 157.218 23.7397 156.618 23.8766V24.3219H169.856V23.8766L169.048 23.8081C168.413 23.751 167.925 23.6766 167.577 23.5913C167.234 23.4997 167.004 23.4369 166.892 23.3972C166.65 23.3056 166.426 23.1916 166.213 23.0375C165.999 22.8891 165.819 22.7004 165.685 22.4607C165.55 22.2266 165.483 21.9354 165.477 21.5813C165.483 21.3132 165.556 21.0335 165.69 20.7367C165.825 20.4398 165.977 20.1654 166.151 19.9145C166.325 19.6632 166.471 19.4632 166.589 19.3204L170.867 14.2506L175.481 19.4232C175.723 19.6861 175.948 19.9601 176.161 20.2398C176.374 20.5251 176.554 20.8107 176.689 21.1076C176.823 21.3988 176.891 21.6957 176.896 21.9926C176.891 22.3294 176.801 22.6091 176.621 22.8319C176.447 23.0488 176.211 23.2257 175.919 23.3628C175.611 23.5169 175.251 23.6313 174.853 23.7056C174.454 23.7797 174.056 23.825 173.662 23.8425L172.686 23.8766V24.3219H186.833V23.8766C186.463 23.8309 186.059 23.7338 185.626 23.5853C185.188 23.4369 184.728 23.2029 184.24 22.8835C183.628 22.4494 183.033 21.9298 182.465 21.3132C181.899 20.702 181.298 20.0282 180.669 19.2864L173.494 11.1331L178.042 5.78953C178.367 5.40704 178.71 5.00144 179.069 4.56739C179.434 4.13334 179.821 3.71114 180.237 3.29991C180.647 2.88898 181.096 2.51804 181.579 2.19211C181.876 1.99837 182.202 1.80963 182.567 1.63308C182.932 1.45621 183.313 1.30777 183.712 1.17621C184.105 1.04496 184.493 0.947789 184.88 0.890603L185.553 0.788097V0.342795H172.012V0.788097L172.854 0.856546C173.472 0.907795 173.977 0.999014 174.37 1.12464C174.763 1.25057 175.066 1.40464 175.279 1.57589C175.527 1.76432 175.706 1.96994 175.807 2.19837C175.908 2.43243 175.959 2.689 175.953 2.98024C175.948 3.32305 175.903 3.62551 175.807 3.89926C175.717 4.168 175.605 4.40208 175.47 4.6077C175.335 4.81332 175.206 4.99017 175.077 5.1386L171.709 9.14665L166.926 3.73395C166.746 3.52833 166.617 3.34586 166.549 3.18586C166.482 3.02618 166.448 2.87775 166.454 2.74056C166.448 2.47776 166.51 2.2212 166.65 1.96995C166.785 1.7184 167.032 1.4959 167.397 1.30185C167.571 1.22154 167.773 1.14746 168.009 1.08496C168.245 1.02215 168.486 0.970602 168.728 0.930915C168.969 0.896541 169.188 0.868108 169.385 0.856546L170.159 0.788097V0.342795H157.09Z" fill="#1F1C21"/>
<path d="M0.483972 35.6121C0.628396 35.52 0.788178 35.4359 0.963023 35.3575C1.13787 35.28 1.32255 35.2171 1.51675 35.17C1.71249 35.1215 1.91069 35.0978 2.11073 35.0956C2.38975 35.0956 2.63374 35.1446 2.84146 35.2406C3.05103 35.3381 3.21235 35.479 3.32942 35.6649C3.44496 35.8528 3.50458 36.0812 3.50673 36.3512C3.50458 36.5546 3.45848 36.744 3.36414 36.9202C3.27165 37.0958 3.14106 37.2483 2.9739 37.3815C2.80858 37.5143 2.61437 37.618 2.39128 37.6924C2.17065 37.7664 1.93005 37.8039 1.67224 37.8058H1.22238V38.5802H1.68361C1.88427 38.5802 2.08399 38.5939 2.28373 38.6249C2.48531 38.6542 2.67614 38.7049 2.85683 38.7752C3.03566 38.8461 3.19698 38.9399 3.33741 39.0567C3.47784 39.1742 3.58939 39.3189 3.6699 39.4908C3.75256 39.663 3.79311 39.8686 3.79496 40.1051C3.79496 40.3961 3.72582 40.6545 3.58939 40.8792C3.4508 41.1061 3.25076 41.282 2.98772 41.411C2.72192 41.5382 2.40112 41.6045 2.01825 41.607C1.80161 41.6045 1.5859 41.581 1.37233 41.536C1.15724 41.491 0.955037 41.4323 0.76698 41.3604C0.576156 41.2879 0.409306 41.2095 0.264882 41.1254L0 41.9235C0.303289 42.1032 0.628404 42.236 0.976557 42.3185C1.32409 42.4001 1.67623 42.4416 2.03022 42.4395C2.31661 42.4395 2.59532 42.4123 2.86818 42.357C3.1432 42.3023 3.39856 42.2182 3.63762 42.1032C3.87761 41.9879 4.08718 41.8395 4.27002 41.6592C4.45224 41.4773 4.59481 41.2626 4.69837 41.0105C4.80223 40.7583 4.85417 40.4686 4.85602 40.1404C4.84864 39.7586 4.76352 39.4286 4.5982 39.1474C4.43288 38.8658 4.2098 38.6389 3.92587 38.4708C3.64102 38.3027 3.31836 38.1989 2.953 38.1574V38.1346C3.2566 38.0618 3.52762 37.9346 3.7676 37.7549C4.00851 37.5749 4.20089 37.3521 4.3407 37.0858C4.48113 36.8205 4.55242 36.5252 4.55642 36.1987C4.55242 35.7899 4.45623 35.4415 4.26418 35.1543C4.07182 34.8672 3.80633 34.6459 3.46433 34.4934C3.1217 34.3412 2.72591 34.2647 2.27206 34.2631C1.84739 34.2647 1.46451 34.3219 1.12435 34.4287C0.786335 34.5387 0.483969 34.6809 0.21909 34.8612L0.483972 35.6121ZM6.73629 34.4034V37.7355C6.73844 38.0539 6.73228 38.3827 6.71692 38.7189C6.70339 39.0552 6.67452 39.3799 6.63027 39.6942C6.58448 40.0092 6.51688 40.293 6.4247 40.547C6.33251 40.8008 6.20959 41.0045 6.05564 41.1607C5.95946 41.2567 5.84055 41.3442 5.69428 41.4248C5.54771 41.5032 5.39591 41.5558 5.23643 41.5833L5.36334 42.4042C5.51544 42.4026 5.66324 42.3848 5.81166 42.3479C5.95762 42.3123 6.0959 42.2654 6.22496 42.2085C6.35341 42.152 6.46495 42.0932 6.56297 42.0289C6.77869 41.8764 6.95753 41.6829 7.10134 41.4501C7.24391 41.2154 7.3573 40.9517 7.44149 40.6586C7.52661 40.3633 7.58992 40.0498 7.63017 39.7177C7.67257 39.3833 7.6993 39.0436 7.71098 38.6936C7.7245 38.3433 7.73034 37.9974 7.72819 37.653V35.2603H10.2894V42.3104H11.3044V34.4034H6.73629ZM17.0607 39.8236L17.8913 42.3104H18.964L16.3109 34.4034H15.1113L12.4579 42.3104H13.4962L14.3035 39.8236H17.0607ZM14.5112 39.0258L15.2726 36.7384C15.3531 36.4959 15.4244 36.2552 15.4862 36.0127C15.5495 35.7721 15.6091 35.5356 15.665 35.3068H15.6878C15.7437 35.5337 15.8055 35.7687 15.8688 36.0071C15.9324 36.2452 16.007 36.4918 16.0912 36.7496L16.8647 39.0258H14.5112ZM21.5821 42.3104H22.5971V35.2718H24.9739V34.4034H19.2178V35.2718H21.5821V42.3104ZM28.976 34.2631C28.4551 34.2647 27.9745 34.3628 27.5382 34.5584C27.0997 34.7537 26.7211 35.0334 26.3985 35.3968C26.0752 35.7624 25.8254 36.1987 25.6481 36.7071C25.4692 37.2174 25.3792 37.7861 25.377 38.4161C25.3792 39.0158 25.4637 39.5611 25.633 40.0539C25.8023 40.5451 26.0405 40.9689 26.3502 41.3254C26.66 41.6811 27.029 41.9545 27.4555 42.1479C27.8823 42.3398 28.3534 42.4376 28.8724 42.4395C29.2706 42.4395 29.6511 42.3807 30.0106 42.2654C30.3701 42.152 30.701 41.9798 31.0006 41.7532C31.3009 41.5264 31.5624 41.247 31.783 40.9108C32.0045 40.5764 32.1779 40.1892 32.2983 39.7489C32.4194 39.3089 32.4811 38.8168 32.483 38.2749C32.4811 37.6824 32.3985 37.143 32.235 36.6543C32.0718 36.1637 31.8368 35.7409 31.5295 35.3853C31.2237 35.0278 30.8547 34.7518 30.4242 34.5584C29.9952 34.3643 29.5112 34.2647 28.976 34.2631ZM28.9415 35.0956C29.2762 35.0978 29.5761 35.1584 29.8419 35.2799C30.1089 35.399 30.3394 35.5649 30.5376 35.7743C30.7358 35.9852 30.9011 36.2281 31.0317 36.5015C31.1626 36.7752 31.2606 37.0687 31.3258 37.3774C31.3891 37.6883 31.4219 38.0033 31.4219 38.3221C31.4219 38.7736 31.3663 39.198 31.2566 39.593C31.1466 39.988 30.9853 40.3355 30.7742 40.6367C30.5606 40.938 30.301 41.1745 29.9912 41.3467C29.6821 41.5164 29.3281 41.6029 28.9302 41.607C28.6109 41.6045 28.3211 41.5482 28.0593 41.4364C27.7978 41.3229 27.5671 41.1664 27.3655 40.9654C27.1633 40.7639 26.994 40.5273 26.8575 40.2595C26.7193 39.9895 26.6151 39.6964 26.5444 39.3798C26.4753 39.0633 26.4384 38.7342 26.4384 38.3924C26.4384 38.0465 26.4713 37.7102 26.5389 37.3871C26.6037 37.0646 26.7042 36.7637 26.8382 36.4862C26.9712 36.2103 27.1384 35.9677 27.3381 35.759C27.5382 35.5515 27.7729 35.3893 28.0403 35.2734C28.3073 35.1565 28.6069 35.0978 28.9415 35.0956ZM32.9328 34.4034L35.5168 39.753C35.5629 39.8452 35.5918 39.9252 35.5995 39.9977C35.6068 40.0695 35.5918 40.1479 35.5515 40.2342C35.4882 40.377 35.4111 40.5273 35.3189 40.6817C35.2264 40.8383 35.1189 40.9826 34.9938 41.1198C34.8687 41.2567 34.7265 41.3661 34.567 41.452C34.4072 41.5361 34.2265 41.5811 34.0286 41.5833C33.9426 41.5833 33.8695 41.581 33.8077 41.5751C33.7459 41.5695 33.694 41.5595 33.6479 41.5482L33.5557 42.3807C33.6193 42.4042 33.6961 42.422 33.7862 42.4335C33.8784 42.4451 33.9899 42.451 34.1208 42.451C34.465 42.451 34.7827 42.3691 35.0709 42.2066C35.3589 42.0426 35.6284 41.8004 35.8742 41.4773C36.0128 41.2936 36.1477 41.0864 36.2761 40.852C36.407 40.617 36.5321 40.3689 36.6531 40.1051C36.7745 39.8411 36.8916 39.5711 37.0031 39.2974C37.1162 39.0217 37.2241 38.7524 37.3282 38.4861L38.966 34.4034H37.9044L36.682 37.7589C36.5899 38.0383 36.505 38.2961 36.4279 38.5311C36.3514 38.7636 36.2779 38.9808 36.2088 39.1783H36.1744C36.0877 38.9499 35.9992 38.7205 35.907 38.4902C35.8149 38.2611 35.7184 38.0287 35.6207 37.7943L34.075 34.4034H32.9328ZM45.0217 41.2429C44.8853 41.3092 44.7295 41.3679 44.5528 41.417C44.3758 41.4657 44.1877 41.5032 43.9874 41.5301C43.7858 41.5579 43.5818 41.571 43.3725 41.571C42.7435 41.5676 42.2073 41.4382 41.7651 41.1801C41.3229 40.9223 40.9843 40.5567 40.7499 40.0817C40.5157 39.6083 40.3977 39.0452 40.3961 38.3924C40.3977 37.8718 40.4708 37.4108 40.6134 37.0059C40.7572 36.6034 40.9634 36.2609 41.2283 35.9834C41.4956 35.7037 41.8149 35.4928 42.1864 35.3478C42.5588 35.2034 42.9721 35.1312 43.4303 35.1312C43.7551 35.1331 44.0488 35.164 44.3122 35.2253C44.5761 35.2856 44.8008 35.364 44.987 35.4593L45.2408 34.6262C45.1523 34.5775 45.0239 34.5268 44.8564 34.4722C44.6892 34.419 44.484 34.3725 44.2415 34.335C43.9969 34.2959 43.7145 34.2768 43.395 34.2747C42.7899 34.2768 42.2402 34.3765 41.7436 34.574C41.2477 34.7715 40.8208 35.0531 40.4613 35.4187C40.1018 35.7843 39.8249 36.2218 39.6307 36.7284C39.4347 37.2368 39.3369 37.804 39.3345 38.4274C39.3385 39.0786 39.4347 39.6533 39.6249 40.1536C39.8154 40.6523 40.0824 41.0707 40.429 41.4095C40.7732 41.7492 41.177 42.0054 41.6416 42.1792C42.1053 42.3513 42.6126 42.4395 43.1648 42.4395C43.4816 42.4376 43.7723 42.4198 44.0378 42.3848C44.3027 42.3479 44.5377 42.3007 44.7375 42.2442C44.9372 42.1873 45.097 42.1285 45.2181 42.0639L45.0217 41.2429ZM47.9627 42.3104H48.978V35.2718H51.3548V34.4034H45.5985V35.2718H47.9627V42.3104ZM55.3569 34.2631C54.836 34.2647 54.3555 34.3628 53.9188 34.5584C53.4806 34.7537 53.102 35.0334 52.7791 35.3968C52.4558 35.7624 52.2063 36.1987 52.029 36.7071C51.8502 37.2174 51.7601 37.7861 51.758 38.4161C51.7601 39.0158 51.8443 39.5611 52.0136 40.0539C52.183 40.5451 52.4214 40.9689 52.7312 41.3254C53.0409 41.6811 53.41 41.9545 53.8362 42.1479C54.263 42.3398 54.734 42.4376 55.2533 42.4395C55.6513 42.4395 56.0317 42.3807 56.3912 42.2654C56.7507 42.152 57.082 41.9798 57.3816 41.7532C57.6815 41.5264 57.9433 41.247 58.1639 40.9108C58.3855 40.5764 58.5585 40.1892 58.6792 39.7489C58.8003 39.3089 58.8621 38.8168 58.8636 38.2749C58.8621 37.6824 58.7794 37.143 58.6157 36.6543C58.4528 36.1637 58.2177 35.7409 57.9104 35.3853C57.6047 35.0278 57.2353 34.7518 56.8051 34.5584C56.3761 34.3643 55.8919 34.2647 55.3569 34.2631ZM55.3225 35.0956C55.6571 35.0978 55.957 35.1584 56.2225 35.2799C56.4898 35.399 56.7203 35.5649 56.9185 35.7743C57.1167 35.9852 57.282 36.2281 57.4126 36.5015C57.5435 36.7752 57.6415 37.0687 57.7064 37.3774C57.77 37.6883 57.8029 38.0033 57.8029 38.3221C57.8029 38.7736 57.7473 39.198 57.6376 39.593C57.5276 39.988 57.3662 40.3355 57.1551 40.6367C56.9416 40.938 56.6819 41.1745 56.3722 41.3467C56.063 41.5164 55.7091 41.6029 55.3111 41.607C54.9919 41.6045 54.7018 41.5482 54.4403 41.4364C54.1788 41.3229 53.9477 41.1664 53.7461 40.9654C53.5442 40.7639 53.3749 40.5273 53.2385 40.2595C53.1002 39.9895 52.996 39.6964 52.9254 39.3798C52.8562 39.0633 52.8193 38.7342 52.8193 38.3924C52.8193 38.0465 52.8522 37.7102 52.9195 37.3871C52.9847 37.0646 53.0848 36.7637 53.2191 36.4862C53.3522 36.2103 53.519 35.9677 53.7191 35.759C53.9188 35.5515 54.1539 35.3893 54.4212 35.2734C54.6883 35.1565 54.9878 35.0978 55.3225 35.0956ZM60.1671 42.2867C60.3346 42.3104 60.5497 42.3316 60.8112 42.3513C61.073 42.3691 61.3787 42.3788 61.7244 42.3807C62.3593 42.3807 62.8976 42.322 63.3398 42.201C63.7835 42.0795 64.1375 41.8942 64.4009 41.642C64.6046 41.4542 64.7684 41.2292 64.887 40.9654C65.0065 40.7011 65.0677 40.3983 65.0702 40.058C65.0677 39.7648 65.0179 39.5048 64.9239 39.2795C64.8277 39.0552 64.7026 38.8593 64.5453 38.6993C64.3874 38.5368 64.2162 38.4061 64.0278 38.3043C63.8413 38.2024 63.6529 38.1305 63.4667 38.0874V38.0521C63.7377 37.9524 63.9701 37.8155 64.1664 37.6433C64.3622 37.4712 64.514 37.2721 64.62 37.0452C64.7257 36.8183 64.7795 36.5759 64.7813 36.3156C64.7795 36.0046 64.7201 35.7312 64.6046 35.4987C64.4875 35.2659 64.3278 35.0725 64.124 34.92C63.9682 34.7868 63.7894 34.6775 63.5878 34.5934C63.3856 34.5093 63.153 34.4468 62.8937 34.4059C62.6322 34.3643 62.3344 34.3447 62.0013 34.3447C61.7687 34.3447 61.5401 34.3528 61.3151 34.3665C61.0899 34.3822 60.8803 34.4019 60.6846 34.4287C60.4864 34.4547 60.3152 34.4859 60.1671 34.5209V42.2867ZM61.1707 35.2015C61.2497 35.1818 61.3594 35.1665 61.5013 35.1525C61.6436 35.1387 61.8304 35.1312 62.0591 35.1312C62.3995 35.129 62.6973 35.174 62.9493 35.2622C63.2034 35.35 63.401 35.4887 63.5414 35.6806C63.6818 35.8699 63.7531 36.1165 63.7547 36.4215C63.7547 36.6777 63.6874 36.9065 63.5549 37.1077C63.4225 37.3071 63.2317 37.4655 62.9822 37.5805C62.7342 37.698 62.4339 37.7568 62.0824 37.7589H61.1707V35.2015ZM61.1707 38.5214H62.0013C62.2782 38.5214 62.536 38.5508 62.7781 38.6096C63.0187 38.6683 63.2317 38.7599 63.4163 38.883C63.6007 39.0061 63.7451 39.1645 63.8493 39.358C63.9528 39.5495 64.0066 39.7805 64.0085 40.0464C64.0066 40.3314 63.9507 40.5745 63.8431 40.7714C63.7356 40.9689 63.5878 41.1279 63.401 41.247C63.2123 41.366 63.0012 41.452 62.7628 41.5048C62.5246 41.5579 62.2742 41.5851 62.0127 41.5833C61.8345 41.5833 61.6746 41.5792 61.5361 41.5735C61.3956 41.5654 61.2746 41.5539 61.1707 41.536V38.5214ZM71.6448 41.2429C71.5084 41.3092 71.3526 41.3679 71.1762 41.417C70.9989 41.4657 70.8108 41.5032 70.6105 41.5301C70.4089 41.5579 70.2052 41.571 69.9956 41.571C69.3666 41.5676 68.8304 41.4382 68.3882 41.1801C67.946 40.9223 67.6074 40.5567 67.3732 40.0817C67.1388 39.6083 67.0211 39.0452 67.0192 38.3924C67.0211 37.8718 67.0939 37.4108 67.2368 37.0059C67.3806 36.6034 67.5865 36.2609 67.8517 35.9834C68.1187 35.7037 68.438 35.4928 68.8095 35.3478C69.1819 35.2034 69.5952 35.1312 70.0534 35.1312C70.3785 35.1331 70.6722 35.164 70.9356 35.2253C71.1992 35.2856 71.4242 35.364 71.6104 35.4593L71.8639 34.6262C71.7757 34.5775 71.6473 34.5268 71.4795 34.4722C71.3126 34.419 71.107 34.3725 70.8646 34.335C70.62 34.2959 70.3376 34.2768 70.0183 34.2747C69.413 34.2768 68.8632 34.3765 68.3667 34.574C67.8707 34.7715 67.4439 35.0531 67.0844 35.4187C66.7249 35.7843 66.448 36.2218 66.2538 36.7284C66.0581 37.2368 65.96 37.804 65.9579 38.4274C65.9616 39.0786 66.0581 39.6533 66.2483 40.1536C66.4385 40.6523 66.7055 41.0707 67.0521 41.4095C67.3963 41.7492 67.8 42.0054 68.265 42.1792C68.7287 42.3513 69.2357 42.4395 69.7879 42.4395C70.105 42.4376 70.3954 42.4198 70.6609 42.3848C70.9257 42.3479 71.1608 42.3007 71.3606 42.2442C71.5606 42.1873 71.7201 42.1285 71.8411 42.0639L71.6448 41.2429ZM73.1096 34.4034V42.3104H74.1132V38.6855H74.4365C74.7631 38.6855 75.044 38.7286 75.2784 38.8127C75.511 38.8986 75.7111 39.0177 75.8745 39.1742C76.0377 39.3286 76.1763 39.5145 76.2897 39.7298C76.4052 39.9445 76.5054 40.183 76.5936 40.4448C76.6667 40.6545 76.7399 40.8676 76.8127 41.0845C76.8858 41.3035 76.9626 41.5164 77.0432 41.726C77.1243 41.9332 77.2125 42.1285 77.3086 42.3104H78.3817C78.2717 42.076 78.17 41.8373 78.0775 41.597C77.9853 41.3542 77.8971 41.1082 77.8086 40.8539C77.7204 40.5998 77.6258 40.3395 77.5278 40.0695C77.4316 39.8017 77.324 39.5536 77.2029 39.3252C77.084 39.0961 76.9411 38.8927 76.7743 38.7149C76.609 38.5368 76.4108 38.3883 76.1781 38.2708C75.9455 38.1533 75.6687 38.0733 75.3476 38.0287L78.2892 34.4034H77.0895L74.4248 37.9111H74.1132V34.4034H73.1096ZM79.3616 34.4034V42.3104H80.4343L82.8683 38.3686C83.1378 37.933 83.3956 37.4908 83.6451 37.0434C83.8956 36.5956 84.1184 36.154 84.3104 35.7174L84.3448 35.7296C84.3184 36.0599 84.2991 36.3899 84.2855 36.7202C84.272 37.053 84.2646 37.4008 84.2588 37.7624C84.2548 38.1264 84.2527 38.5189 84.2527 38.9433V42.3104H85.1988V34.4034H84.1955L81.6807 38.4743C81.398 38.9417 81.1365 39.393 80.8959 39.827C80.6559 40.2595 80.4408 40.6817 80.25 41.0904L80.2153 41.0789C80.2386 40.7289 80.2561 40.3748 80.269 40.0189C80.2829 39.663 80.2924 39.2973 80.3004 38.9205C80.3059 38.5427 80.3077 38.1477 80.3077 37.7355V34.4034H79.3616ZM90.9668 37.7589H87.956V35.2603H91.1515V34.4034H86.9408V42.3104H91.3245V41.4542H87.956V38.6036H90.9668V37.7589ZM156.192 34.4034V42.3104H157.208V38.6036H160.968V42.3104H161.983V34.4034H160.968V37.7118H157.208V34.4034H156.192ZM166.863 34.2631C166.341 34.2647 165.861 34.3628 165.424 34.5584C164.986 34.7537 164.607 35.0334 164.285 35.3968C163.961 35.7624 163.712 36.1987 163.535 36.7071C163.356 37.2174 163.265 37.7861 163.263 38.4161C163.265 39.0158 163.35 39.5611 163.519 40.0539C163.689 40.5451 163.927 40.9689 164.237 41.3254C164.546 41.6811 164.915 41.9545 165.342 42.1479C165.769 42.3398 166.24 42.4376 166.759 42.4395C167.157 42.4395 167.537 42.3807 167.897 42.2654C168.256 42.152 168.588 41.9798 168.887 41.7532C169.187 41.5264 169.449 41.247 169.67 40.9108C169.891 40.5764 170.064 40.1892 170.185 39.7489C170.306 39.3089 170.367 38.8168 170.369 38.2749C170.367 37.6824 170.285 37.143 170.121 36.6543C169.958 36.1637 169.723 35.7409 169.416 35.3853C169.11 35.0278 168.741 34.7518 168.311 34.5584C167.881 34.3643 167.398 34.2647 166.863 34.2631ZM166.828 35.0956C167.162 35.0978 167.463 35.1584 167.728 35.2799C167.995 35.399 168.226 35.5649 168.424 35.7743C168.622 35.9852 168.787 36.2281 168.918 36.5015C169.049 36.7752 169.147 37.0687 169.212 37.3774C169.275 37.6883 169.308 38.0033 169.308 38.3221C169.308 38.7736 169.253 39.198 169.143 39.593C169.033 39.988 168.872 40.3355 168.66 40.6367C168.447 40.938 168.187 41.1745 167.878 41.3467C167.568 41.5164 167.215 41.6029 166.816 41.607C166.497 41.6045 166.207 41.5482 165.946 41.4364C165.684 41.3229 165.453 41.1664 165.252 40.9654C165.05 40.7639 164.88 40.5273 164.744 40.2595C164.606 39.9895 164.501 39.6964 164.431 39.3798C164.362 39.0633 164.325 38.7342 164.325 38.3924C164.325 38.0465 164.358 37.7102 164.425 37.3871C164.49 37.0646 164.59 36.7637 164.724 36.4862C164.858 36.2103 165.025 35.9677 165.224 35.759C165.424 35.5515 165.659 35.3893 165.927 35.2734C166.194 35.1565 166.493 35.0978 166.828 35.0956ZM171.05 34.4034L173.795 38.0405C173.493 38.0793 173.234 38.1533 173.013 38.2652C172.793 38.3767 172.603 38.5189 172.444 38.6952C172.286 38.8714 172.148 39.0764 172.029 39.3089C171.912 39.542 171.803 39.8001 171.707 40.0817C171.625 40.3279 171.544 40.5764 171.465 40.8267C171.388 41.0767 171.306 41.3254 171.219 41.5735C171.132 41.8217 171.033 42.0679 170.923 42.3104H171.949C172.034 42.1326 172.111 41.9351 172.184 41.7198C172.255 41.5048 172.325 41.2895 172.39 41.0708C172.455 40.852 172.519 40.6464 172.584 40.457C172.675 40.1852 172.773 39.943 172.876 39.7236C172.982 39.5064 173.107 39.3211 173.253 39.1667C173.399 39.0121 173.58 38.8927 173.795 38.8105C174.008 38.7286 174.27 38.6855 174.58 38.6855H174.938V42.3104H175.906V38.6855H176.252C176.562 38.6855 176.823 38.7286 177.039 38.8105C177.252 38.8927 177.433 39.0121 177.579 39.1667C177.725 39.3211 177.85 39.5064 177.956 39.7236C178.059 39.943 178.158 40.1852 178.248 40.457C178.31 40.6464 178.371 40.852 178.436 41.0708C178.5 41.2895 178.569 41.5048 178.64 41.7198C178.713 41.9351 178.794 42.1326 178.883 42.3104H179.909C179.803 42.0679 179.707 41.8217 179.625 41.5735C179.542 41.3254 179.461 41.0748 179.387 40.8226C179.311 40.5704 179.231 40.3201 179.147 40.0695C179.052 39.7864 178.944 39.5283 178.825 39.2933C178.705 39.0592 178.565 38.8536 178.404 38.6758C178.242 38.5002 178.05 38.3574 177.827 38.2474C177.604 38.1402 177.34 38.0693 177.037 38.0405L179.794 34.4034H178.629L176.218 37.9111H175.906V34.4034H174.938V37.9111H174.625L172.215 34.4034H171.05ZM180.912 34.4034V42.3104H181.985L184.419 38.3686C184.689 37.933 184.946 37.4908 185.196 37.0434C185.446 36.5956 185.669 36.154 185.861 35.7174L185.896 35.7296C185.869 36.0599 185.85 36.3899 185.836 36.7202C185.823 37.053 185.815 37.4008 185.81 37.7624C185.806 38.1264 185.803 38.5189 185.803 38.9433V42.3104H186.749V34.4034H185.746L183.231 38.4743C182.949 38.9417 182.687 39.393 182.446 39.827C182.206 40.2595 181.991 40.6817 181.801 41.0904L181.766 41.0789C181.789 40.7289 181.807 40.3748 181.82 40.0189C181.833 39.663 181.843 39.2973 181.851 38.9205C181.857 38.5427 181.858 38.1477 181.858 37.7355V34.4034H180.912Z" fill="#1F1C21"/>
</svg>
