<svg width="22" height="28" viewBox="0 0 22 28" fill="none" xmlns="http://www.w3.org/2000/svg">
<path d="M10.4177 14.9052C10.4433 14.9052 10.4689 14.9052 10.4996 14.9052C10.5098 14.9052 10.52 14.9052 10.5303 14.9052C10.5456 14.9052 10.5661 14.9052 10.5814 14.9052C12.0803 14.8766 13.2928 14.2866 14.188 13.1581C16.1576 10.672 15.8302 6.41005 15.7944 6.00333C15.6665 2.95011 14.3773 1.48938 13.3132 0.8077C12.5203 0.297875 11.5943 0.0229135 10.561 0H10.5251C10.52 0 10.5098 0 10.5047 0H10.474C9.90613 0 8.79089 0.103111 7.72169 0.784787C6.64737 1.46646 5.33773 2.9272 5.20983 6.00333C5.17402 6.41005 4.84661 10.672 6.81619 13.1581C7.70634 14.2866 8.91878 14.8766 10.4177 14.9052ZM6.57575 6.14654C6.57575 6.12936 6.58087 6.11217 6.58087 6.10072C6.74969 1.99347 9.35362 1.55239 10.4689 1.55239H10.4893C10.4996 1.55239 10.5149 1.55239 10.5303 1.55239C11.9115 1.58676 14.2597 2.21688 14.4183 6.10072C14.4183 6.1179 14.4183 6.13509 14.4234 6.14654C14.4285 6.18664 14.7866 10.0819 13.1598 12.1327C12.5152 12.9461 11.6557 13.3471 10.5251 13.3586C10.5149 13.3586 10.5098 13.3586 10.4996 13.3586C10.4893 13.3586 10.4842 13.3586 10.474 13.3586C9.34851 13.3471 8.48394 12.9461 7.84447 12.1327C6.22276 10.0934 6.57064 6.18091 6.57575 6.14654Z" fill="white"/>
<path d="M21.012 21.974C21.012 21.9683 21.012 21.9626 21.012 21.9568C21.012 21.911 21.0069 21.8652 21.0069 21.8136C20.9762 20.6794 20.9097 18.0272 18.6895 17.1794C18.6741 17.1737 18.6536 17.1679 18.6383 17.1622C16.3311 16.5034 14.4126 15.0141 14.3922 14.9969C14.0801 14.7506 13.6504 14.8365 13.4304 15.1859C13.2104 15.5353 13.2872 16.0165 13.5992 16.2628C13.6862 16.3316 15.7223 17.9183 18.27 18.6516C19.4619 19.127 19.595 20.5534 19.6308 21.8595C19.6308 21.911 19.6308 21.9568 19.6359 22.0027C19.641 22.5182 19.6103 23.3145 19.5285 23.7727C18.6997 24.2997 15.4511 26.1214 10.5093 26.1214C5.58786 26.1214 2.31886 24.294 1.48498 23.767C1.40313 23.3087 1.36731 22.5125 1.37755 21.9969C1.37755 21.9511 1.38266 21.9053 1.38266 21.8537C1.41847 20.5477 1.55148 19.1213 2.74347 18.6458C5.29114 17.9126 7.32724 16.3201 7.41421 16.2571C7.72627 16.0108 7.80301 15.5296 7.58303 15.1802C7.36305 14.8308 6.93332 14.7448 6.62125 14.9911C6.60079 15.0083 4.69259 16.4977 2.37513 17.1565C2.35467 17.1622 2.33932 17.1679 2.32397 17.1737C0.103709 18.0272 0.0372032 20.6794 0.00650827 21.8079C0.00650827 21.8595 0.00650816 21.9053 0.00139234 21.9511C0.00139234 21.9568 0.00139234 21.9626 0.00139234 21.9683C-0.00372347 22.2662 -0.00883919 23.7956 0.262299 24.5633C0.313457 24.7122 0.405542 24.8382 0.528321 24.9241C0.681796 25.0387 4.36007 27.6623 10.5144 27.6623C16.6687 27.6623 20.347 25.033 20.5005 24.9241C20.6181 24.8382 20.7153 24.7122 20.7665 24.5633C21.0223 23.8014 21.0172 22.2719 21.012 21.974Z" fill="white"/>
</svg>
