<svg width="63" height="64" viewBox="0 0 63 64" fill="none" xmlns="http://www.w3.org/2000/svg">
<path d="M62.1705 35.1929C61.8189 33.9138 61.4878 32.7047 61.4878 31.6014C61.4878 30.4981 61.8189 29.289 62.1705 28.0098C62.73 25.9736 63.3073 23.8673 62.6164 21.8201C61.8996 19.6904 60.113 18.2986 58.3852 16.9548C57.3496 16.1483 56.3715 15.3871 55.7367 14.549C55.091 13.6944 54.6341 12.554 54.1526 11.3463C53.3577 9.36225 52.5369 7.30954 50.6983 6.02075C48.8898 4.7512 46.6326 4.62891 44.4534 4.51213C43.0936 4.43931 41.8076 4.36923 40.731 4.03261C39.7242 3.71797 38.6817 3.06533 37.5791 2.37423C35.8048 1.26131 33.7925 0 31.4655 0C29.1385 0 27.1262 1.26131 25.3519 2.3756C24.2492 3.06671 23.2096 3.72072 22.2013 4.03398C21.1233 4.37061 19.8374 4.44068 18.4776 4.5135C16.297 4.63166 14.0425 4.75257 12.2327 6.02212C10.3941 7.31091 9.57324 9.36225 8.77843 11.3463C8.29416 12.554 7.83724 13.6958 7.19154 14.5504C6.55678 15.3912 5.57866 16.1524 4.54307 16.9603C2.81665 18.3054 1.03276 19.6945 0.315926 21.8214C-0.374918 23.87 0.202382 25.975 0.760529 28.0126C1.11211 29.2917 1.44317 30.4995 1.44317 31.6028C1.44317 32.7061 1.11211 33.9151 0.760529 35.1943C0.202382 37.2305 -0.374918 39.3368 0.315926 41.3868C1.03276 43.5137 2.81801 44.9056 4.54444 46.2493C5.58003 47.0545 6.55815 47.817 7.19154 48.6551C7.83861 49.5097 8.29552 50.6501 8.77843 51.8592C9.57324 53.8433 10.3954 55.896 12.2354 57.1875C14.0425 58.4543 16.2984 58.5752 18.4776 58.692C19.8374 58.7648 21.1233 58.8349 22.2 59.1715C23.2068 59.4862 24.2479 60.1388 25.3491 60.8285C27.1248 61.9401 29.1371 63.2028 31.4655 63.2028C33.7938 63.2028 35.8076 61.9401 37.5846 60.8272C38.6858 60.1374 39.7255 59.4848 40.7338 59.1701C41.8104 58.8335 43.0963 58.7635 44.4561 58.6906C46.6367 58.5738 48.8912 58.4529 50.6983 57.1861C52.541 55.8946 53.3618 53.8391 54.1567 51.8537C54.6396 50.6474 55.0951 49.507 55.7381 48.6551C56.3728 47.817 57.351 47.0545 58.3865 46.2493C60.1143 44.9042 61.8996 43.5137 62.6178 41.3854C63.3086 39.3355 62.73 37.2305 62.1705 35.1929ZM60.0253 40.5047C59.5724 41.8485 58.1812 42.9312 56.7092 44.0771C55.5806 44.9564 54.4123 45.866 53.5587 46.9926C52.6927 48.1413 52.1455 49.507 51.6161 50.8301C50.9417 52.5174 50.3042 54.1098 49.1318 54.9314C47.9635 55.7503 46.1892 55.8451 44.3096 55.9454C42.8417 56.0237 41.3218 56.1048 39.9182 56.5445C38.5762 56.9663 37.3341 57.7426 36.1343 58.4955C34.5269 59.504 33.0098 60.4548 31.4653 60.4548C29.9208 60.4548 28.4051 59.504 26.7977 58.4955C25.5993 57.744 24.3585 56.9663 23.0151 56.5445C21.6116 56.1062 20.0917 56.0237 18.6238 55.9454C16.7442 55.8451 14.9685 55.749 13.8016 54.9314C12.6306 54.1098 11.9917 52.5174 11.3173 50.8315C10.7879 49.5084 10.2393 48.1413 9.37198 46.9926C8.51971 45.866 7.35143 44.9564 6.22145 44.0757C4.75084 42.9298 3.36094 41.8485 2.90813 40.5047C2.48542 39.253 2.93002 37.6345 3.39925 35.9225C3.78229 34.5224 4.17901 33.077 4.17901 31.6C4.17901 30.123 3.78229 28.6789 3.39925 27.2789C2.92865 25.5669 2.48542 23.9497 2.90813 22.698C3.36094 21.3543 4.74947 20.273 6.22008 19.1271C7.35006 18.2464 8.51971 17.3354 9.37061 16.2074C10.2407 15.0587 10.7879 13.6903 11.3187 12.3671C11.9917 10.6813 12.6292 9.09021 13.7989 8.27132C14.9671 7.45106 16.7442 7.35625 18.6252 7.25595C20.0917 7.17626 21.6116 7.0952 23.0138 6.65553C24.3585 6.23509 25.6007 5.45605 26.8018 4.70311C28.4065 3.69874 29.9222 2.74795 31.4653 2.74795C33.0084 2.74795 34.5256 3.69874 36.1316 4.70586C37.3327 5.46017 38.5735 6.23784 39.9182 6.65827C41.3205 7.09657 42.8389 7.17764 44.3068 7.25733C46.1878 7.35763 47.9635 7.45518 49.1318 8.27407C50.3028 9.0957 50.9403 10.6868 51.6134 12.3699C52.1441 13.6944 52.69 15.0615 53.56 16.2101C54.4123 17.3368 55.5806 18.2464 56.7092 19.1257C58.1812 20.273 59.5724 21.3557 60.0253 22.7022C60.448 23.9511 60.002 25.5683 59.5328 27.2802C59.1484 28.6803 58.7516 30.1257 58.7516 31.6028C58.7516 33.0798 59.147 34.5252 59.5328 35.9239C60.0035 37.6359 60.448 39.253 60.0253 40.5047Z" fill="white"/>
<path d="M31.4655 10.9909C20.1506 10.9909 10.9453 20.2364 10.9453 31.6005C10.9453 42.9647 20.1506 52.2102 31.4655 52.2102C42.7803 52.2102 51.9856 42.9647 51.9856 31.6005C51.9856 20.2364 42.7803 10.9909 31.4655 10.9909ZM31.4655 49.4622C21.6596 49.4622 13.6813 41.4492 13.6813 31.6005C13.6813 21.7519 21.6596 13.7389 31.4655 13.7389C36.523 13.7389 41.0826 15.8809 44.3247 19.2966L31.2876 37.723L24.2246 30.6291C23.6897 30.0919 22.8251 30.0919 22.2902 30.6291C21.7553 31.1664 21.7553 32.0347 22.2902 32.5719L30.4983 40.8158C30.7555 41.0755 31.1043 41.2184 31.4655 41.2184C31.5024 41.2184 31.5421 41.217 31.5804 41.2129C31.9812 41.1799 32.3478 40.9697 32.5804 40.6399L46.1196 21.5032C48.0895 24.3776 49.2496 27.8537 49.2496 31.6005C49.2496 41.4492 41.2713 49.4622 31.4655 49.4622Z" fill="white"/>
</svg>
