<svg width="91" height="60" viewBox="0 0 91 60" fill="none" xmlns="http://www.w3.org/2000/svg">
<path d="M84.2716 25.4361L81.9798 15.6109C82.6064 15.4683 83.0765 14.8725 83.0765 14.1587V12.5746C83.0765 9.13506 80.4656 6.33693 77.2566 6.33693H66.8177V3.06935C66.8177 1.37684 65.5331 0 63.9539 0H10.7428C9.16366 0 7.87902 1.37684 7.87902 3.06935V30.0003C7.87902 30.8204 8.49939 31.4855 9.26478 31.4855C10.03 31.4855 10.6505 30.8206 10.6505 30.0003V3.06935C10.6505 3.0147 10.6918 2.97042 10.7428 2.97042H63.9537C64.0047 2.97042 64.046 3.0147 64.046 3.06935V30.0007C64.046 30.8208 64.6664 31.4859 65.4318 31.4859C66.197 31.4859 66.8175 30.821 66.8175 30.0007V28.317H83.164C83.1654 28.317 83.1664 28.3174 83.1676 28.3174C83.169 28.3174 83.1702 28.3172 83.1714 28.3172C85.1829 28.3187 86.8908 29.7337 87.4775 31.6835H83.1686C82.4034 31.6835 81.7829 32.3484 81.7829 33.1687V36.337C81.7829 38.903 83.7306 40.9905 86.1248 40.9905H87.6953V47.5251H84.072C82.8817 43.8416 79.6146 41.1884 75.7782 41.1884C71.9417 41.1884 68.6745 43.8416 67.4844 47.5251H66.8172V36.3368C66.8172 35.5167 66.1968 34.8516 65.4314 34.8516C64.6662 34.8516 64.0457 35.5165 64.0457 36.3368V47.5247H35.2956C34.1053 43.8413 30.8383 41.188 27.0018 41.188C23.1654 41.188 19.8981 43.8413 18.708 47.5247H10.7428C10.6918 47.5247 10.6505 47.4805 10.6505 47.4258V44.1584H16.6552C17.4204 44.1584 18.041 43.4935 18.041 42.6732C18.041 41.8529 17.4206 41.188 16.6552 41.188H3.35255C2.58734 41.188 1.9668 41.8529 1.9668 42.6732C1.9668 43.4935 2.58716 44.1584 3.35255 44.1584H7.8792V47.4258C7.8792 49.1183 9.16383 50.4952 10.743 50.4952H18.2282C18.2278 50.5281 18.2258 50.5609 18.2258 50.5941C18.2258 55.7806 22.1628 60 27.0018 60C31.8408 60 35.7778 55.7806 35.7778 50.5941C35.7778 50.5607 35.7758 50.5281 35.7754 50.4952H67.0046C67.0042 50.5281 67.0022 50.5609 67.0022 50.5941C67.0022 55.7806 70.9392 60 75.7782 60C80.6172 60 84.5542 55.7806 84.5542 50.5941C84.5542 50.5607 84.5522 50.5281 84.5518 50.4952H89.081C89.8463 50.4952 90.4668 49.8303 90.4668 49.01V33.1684C90.467 29.2572 87.7745 26.0076 84.2716 25.4361ZM66.8177 9.30717H77.2566C78.9376 9.30717 80.3052 10.7729 80.3052 12.5746V12.6735H66.8177V9.30717ZM66.8177 25.3468V15.6437H79.1308L81.3941 25.3468H66.8177ZM27.0018 57.0301C23.6908 57.0301 20.9971 54.1433 20.9971 50.5945C20.9971 47.0457 23.6908 44.1588 27.0018 44.1588C30.3128 44.1588 33.0065 47.0457 33.0065 50.5945C33.0065 54.1433 30.3128 57.0301 27.0018 57.0301ZM75.7785 57.0301C72.4676 57.0301 69.7738 54.1433 69.7738 50.5945C69.7738 47.0457 72.4676 44.1588 75.7785 44.1588C79.0895 44.1588 81.7832 47.0457 81.7832 50.5945C81.7832 54.1433 79.0895 57.0301 75.7785 57.0301ZM87.6956 38.0201H86.1251C85.2591 38.0201 84.5546 37.265 84.5546 36.3368V34.6536H87.6955V38.0201H87.6956Z" fill="white"/>
<path d="M27.0418 48C25.6862 48 24.5835 49.1214 24.5835 50.5C24.5835 51.8786 25.6862 53 27.0418 53C28.3974 53 29.5002 51.8786 29.5002 50.5C29.5002 49.1214 28.3974 48 27.0418 48Z" fill="white"/>
<path d="M75.8184 48C74.4629 48 73.3601 49.1214 73.3601 50.5C73.3601 51.8786 74.4629 53 75.8184 53C77.174 53 78.2768 51.8786 78.2768 50.5C78.2768 49.1214 77.174 48 75.8184 48Z" fill="white"/>
<path d="M33.879 37H13.1858C12.4206 37 11.8 37.6788 11.8 38.5162C11.8 39.3536 12.4204 40.0324 13.1858 40.0324H33.879C34.6442 40.0324 35.2647 39.3536 35.2647 38.5162C35.2647 37.6788 34.6443 37 33.879 37Z" fill="white"/>
<path d="M19.1228 33H1.38575C0.620538 33 0 33.6788 0 34.5162C0 35.3536 0.620366 36.0324 1.38575 36.0324H19.1228C19.888 36.0324 20.5085 35.3536 20.5085 34.5162C20.5085 33.6788 19.888 33 19.1228 33Z" fill="white"/>
<path d="M50.1527 14.999C49.6116 14.407 48.7341 14.407 48.193 14.9992L35.8701 28.482L29.4595 21.468C28.9183 20.8758 28.0409 20.8758 27.4999 21.468C26.9587 22.0601 26.9587 23.0199 27.4999 23.6121L34.8904 31.6983C35.1609 31.9944 35.5156 32.1423 35.8701 32.1423C36.2246 32.1423 36.5795 31.9944 36.8498 31.6983L50.1525 17.1433C50.6937 16.5509 50.6937 15.5911 50.1527 14.999Z" fill="white"/>
</svg>
