<svg width="73" height="78" viewBox="0 0 73 78" fill="none" xmlns="http://www.w3.org/2000/svg">
<path d="M21.9429 13.5635C21.3285 13.5635 20.8302 14.1084 20.8302 14.7808C20.8302 16.2575 19.7322 17.459 18.3825 17.459C17.0329 17.459 15.9348 16.2575 15.9348 14.7808C15.9348 13.3041 17.0329 12.1027 18.3825 12.1027C18.9969 12.1027 19.4952 11.5577 19.4952 10.8853C19.4952 10.2129 18.9971 9.66797 18.3825 9.66797C15.8059 9.66797 13.7097 11.9616 13.7097 14.7807C13.7097 17.5997 15.806 19.8934 18.3825 19.8934C20.959 19.8934 23.0553 17.5997 23.0553 14.7807C23.0555 14.1084 22.5573 13.5635 21.9429 13.5635Z" fill="white"/>
<path d="M21.9429 27.8465C21.3285 27.8465 20.8302 28.3915 20.8302 29.0639C20.8302 30.5406 19.7322 31.742 18.3825 31.742C17.0329 31.742 15.9348 30.5406 15.9348 29.0639C15.9348 27.5872 17.0329 26.3858 18.3825 26.3858C18.9969 26.3858 19.4952 25.8408 19.4952 25.1684C19.4952 24.496 18.9971 23.951 18.3825 23.951C15.8059 23.951 13.7097 26.2447 13.7097 29.0638C13.7097 31.8828 15.806 34.1765 18.3825 34.1765C20.959 34.1765 23.0553 31.8828 23.0553 29.0638C23.0555 28.3917 22.5573 27.8465 21.9429 27.8465Z" fill="white"/>
<path d="M40.0083 31.3079H31.701C31.0866 31.3079 30.5884 31.8529 30.5884 32.5253C30.5884 33.1976 31.0865 33.7426 31.701 33.7426H40.0083C40.6227 33.7426 41.1209 33.1976 41.1209 32.5253C41.1209 31.8529 40.6228 31.3079 40.0083 31.3079Z" fill="white"/>
<path d="M40.0083 26.1139H31.701C31.0866 26.1139 30.5884 26.6589 30.5884 27.3313C30.5884 28.0037 31.0865 28.5486 31.701 28.5486H40.0083C40.6227 28.5486 41.1209 28.0037 41.1209 27.3313C41.1209 26.6589 40.6228 26.1139 40.0083 26.1139Z" fill="white"/>
<path d="M37.6348 45.5909H31.701C31.0866 45.5909 30.5884 46.1359 30.5884 46.8083C30.5884 47.4807 31.0865 48.0256 31.701 48.0256H37.6348C38.2492 48.0256 38.7475 47.4807 38.7475 46.8083C38.7475 46.1359 38.2492 45.5909 37.6348 45.5909Z" fill="white"/>
<path d="M40.0083 40.3972H31.701C31.0866 40.3972 30.5884 40.9421 30.5884 41.6145C30.5884 42.2869 31.0865 42.8318 31.701 42.8318H40.0083C40.6227 42.8318 41.1209 42.2869 41.1209 41.6145C41.1209 40.9421 40.6228 40.3972 40.0083 40.3972Z" fill="white"/>
<path d="M50.6891 17.0247H31.701C31.0866 17.0247 30.5884 17.5696 30.5884 18.242C30.5884 18.9144 31.0865 19.4594 31.701 19.4594H50.689C51.3034 19.4594 51.8016 18.9144 51.8016 18.242C51.8016 17.5696 51.3035 17.0247 50.6891 17.0247Z" fill="white"/>
<path d="M45.942 11.8307H31.701C31.0866 11.8307 30.5884 12.3757 30.5884 13.0481C30.5884 13.7205 31.0865 14.2655 31.701 14.2655H45.942C46.5564 14.2655 47.0547 13.7205 47.0547 13.0481C47.0547 12.3757 46.5566 11.8307 45.942 11.8307Z" fill="white"/>
<path d="M21.9429 42.1297C21.3285 42.1297 20.8302 42.6747 20.8302 43.3471C20.8302 44.8238 19.7322 46.0252 18.3825 46.0252C17.0329 46.0252 15.9348 44.8238 15.9348 43.3471C15.9348 41.8704 17.0329 40.6689 18.3825 40.6689C18.9969 40.6689 19.4952 40.1239 19.4952 39.4516C19.4952 38.7792 18.9971 38.2342 18.3825 38.2342C15.8059 38.2342 13.7097 40.5279 13.7097 43.3469C13.7097 46.166 15.806 48.4597 18.3825 48.4597C20.959 48.4597 23.0553 46.166 23.0553 43.3469C23.0555 42.6747 22.5573 42.1297 21.9429 42.1297Z" fill="white"/>
<path d="M57.5122 0H4.57373C2.05189 0 0 1.71101 0 3.81425V58.3499C0 60.4531 2.05171 62.1641 4.57373 62.1641H31.0431C31.8491 62.1641 32.5028 61.6191 32.5028 60.9468C32.5028 60.2745 31.8493 59.7294 31.0431 59.7294H4.57373C3.6615 59.7294 2.91933 59.1105 2.91933 58.3497V3.81425C2.91933 3.0535 3.6615 2.43457 4.57373 2.43457H57.5122C58.4244 2.43457 59.1666 3.0535 59.1666 3.81425V44.067C59.1666 44.7392 59.8201 45.2843 60.6264 45.2843C61.4324 45.2843 62.0861 44.7394 62.0861 44.067V3.81425C62.0859 1.71101 60.0342 0 57.5122 0Z" fill="white"/>
<path d="M69.1043 49.3646C68.0702 49.2518 67.0367 49.5725 66.2187 50.252C65.5671 49.0558 64.456 48.2071 63.1705 48.0662C62.1362 47.9535 61.1028 48.2742 60.2849 48.9536C59.6334 47.7573 58.5223 46.9086 57.2367 46.7677C56.447 46.6815 55.6585 46.8479 54.9655 47.2338V31.7314C54.9655 30.4727 54.4762 29.2661 53.6225 28.4211C52.7697 27.5768 51.6205 27.1647 50.4693 27.2907C48.4154 27.5158 46.8066 29.5476 46.8066 31.9166V47.4582L43.5361 51.0366C41.7981 52.9382 41.0966 55.6362 41.6596 58.2541L44.1426 69.8001C45.1486 74.4786 48.9192 77.7461 53.3119 77.7461H63.3469C68.541 77.7461 72.7668 73.1226 72.7668 67.4395V53.9908C72.7669 51.6215 71.1581 49.5897 69.1043 49.3646ZM70.5417 67.4392C70.5417 71.7797 67.3141 75.3111 63.347 75.3111H53.3121C49.957 75.3111 47.077 72.8155 46.3085 69.242L43.8256 57.696C43.4403 55.905 43.9204 54.0588 45.1095 52.7578L46.8066 50.9009V55.1037C46.8066 55.7759 47.3047 56.3211 47.9193 56.3211C48.5338 56.3211 49.0319 55.7761 49.0319 55.1037V31.9165C49.0319 30.7829 49.7606 29.8151 50.6912 29.7133C51.2256 29.6545 51.7368 29.8371 52.1298 30.2264C52.518 30.6107 52.7406 31.1594 52.7406 31.7315V53.1562C52.7406 53.8285 53.2387 54.3736 53.8532 54.3736C54.4677 54.3736 54.9658 53.8286 54.9658 53.1562V51.2085C54.9658 50.6363 55.1883 50.0877 55.5766 49.7034C55.9699 49.3141 56.4808 49.1314 57.0152 49.1903C57.9456 49.2922 58.6745 50.2601 58.6745 51.3936V54.4544C58.6745 55.1266 59.1726 55.6718 59.7871 55.6718C60.4015 55.6718 60.8997 55.1268 60.8997 54.4544V52.5066C60.8997 51.9345 61.1222 51.3859 61.5105 51.0015C61.9038 50.6122 62.4148 50.4297 62.9491 50.4884C63.8795 50.5903 64.6084 51.5582 64.6084 52.6917V55.7527C64.6084 56.4249 65.1065 56.97 65.7211 56.97C66.3354 56.97 66.8337 56.4251 66.8337 55.7527V53.8049C66.8337 53.2328 67.0561 52.6842 67.4445 52.2998C67.8378 51.9106 68.3484 51.7278 68.8831 51.7869C69.8135 51.8886 70.5424 52.8565 70.5424 53.99V67.4392H70.5417Z" fill="white"/>
</svg>
