<svg width="66" height="66" viewBox="0 0 66 66" fill="none" xmlns="http://www.w3.org/2000/svg">
<path d="M65.0847 36.6958C64.7166 35.362 64.3701 34.1012 64.3701 32.9508C64.3701 31.8004 64.7166 30.5397 65.0847 29.2059C65.6704 27.0827 66.2748 24.8865 65.5516 22.7518C64.8011 20.5312 62.9308 19.08 61.122 17.6788C60.0379 16.8379 59.0139 16.0442 58.3494 15.1703C57.6734 14.2792 57.1951 13.0901 56.691 11.8308C55.8589 9.76204 54.9996 7.62167 53.0748 6.27785C51.1815 4.95408 48.8185 4.82658 46.5371 4.7048C45.1136 4.62887 43.7674 4.55581 42.6403 4.20481C41.5862 3.87674 40.4949 3.19623 39.3406 2.47561C37.4832 1.31517 35.3765 0 32.9404 0C30.5044 0 28.3977 1.31517 26.5402 2.47704C25.3859 3.19766 24.2975 3.8796 23.242 4.20624C22.1135 4.55724 20.7673 4.63031 19.3438 4.70624C17.0609 4.82944 14.7008 4.95552 12.8061 6.27928C10.8813 7.6231 10.022 9.76204 9.18992 11.8308C8.68294 13.0901 8.20461 14.2806 7.52864 15.1717C6.86413 16.0485 5.84016 16.8422 4.75603 17.6846C2.94868 19.0871 1.08117 20.5355 0.330735 22.7533C-0.392493 24.8893 0.211868 27.0841 0.796179 29.2088C1.16424 30.5425 1.51081 31.8018 1.51081 32.9523C1.51081 34.1027 1.16424 35.3634 0.796179 36.6972C0.211868 38.8204 -0.392493 41.0166 0.330735 43.1541C1.08117 45.3718 2.95011 46.8231 4.75746 48.2242C5.84159 49.0638 6.86557 49.8589 7.52864 50.7328C8.20604 51.6239 8.68438 52.813 9.18992 54.0737C10.022 56.1425 10.8827 58.2828 12.8089 59.6295C14.7008 60.9504 17.0624 61.0765 19.3438 61.1983C20.7673 61.2742 22.1135 61.3473 23.2406 61.6983C24.2946 62.0263 25.3845 62.7068 26.5374 63.426C28.3963 64.585 30.5029 65.9016 32.9404 65.9016C35.3779 65.9016 37.486 64.585 39.3464 63.4246C40.4992 62.7054 41.5877 62.0249 42.6431 61.6968C43.7702 61.3458 45.1164 61.2728 46.54 61.1968C48.8228 61.0751 51.183 60.949 53.0748 59.6281C55.0039 58.2814 55.8632 56.1382 56.6953 54.068C57.2008 52.8101 57.6777 51.621 58.3508 50.7328C59.0153 49.8589 60.0393 49.0638 61.1234 48.2242C62.9322 46.8217 64.8011 45.3718 65.553 43.1527C66.2762 41.0152 65.6704 38.8204 65.0847 36.6958ZM62.8389 42.2344C62.3649 43.6355 60.9084 44.7644 59.3674 45.9592C58.1859 46.8761 56.9629 47.8245 56.0692 48.9993C55.1627 50.197 54.5898 51.621 54.0356 53.0007C53.3296 54.76 52.6622 56.4204 51.4348 57.2771C50.2118 58.131 48.3543 58.2298 46.3866 58.3344C44.8499 58.4161 43.2588 58.5006 41.7894 58.959C40.3845 59.3989 39.0841 60.2083 37.8281 60.9934C36.1454 62.045 34.5571 63.0364 32.9403 63.0364C31.3234 63.0364 29.7366 62.045 28.0538 60.9934C26.7993 60.2097 25.5003 59.3989 24.094 58.959C22.6246 58.502 21.0335 58.4161 19.4968 58.3344C17.5291 58.2298 15.6701 58.1295 14.4485 57.2771C13.2226 56.4204 12.5538 54.76 11.8478 53.0021C11.2935 51.6225 10.7193 50.197 9.81129 48.9993C8.91907 47.8245 7.69602 46.8761 6.51308 45.9578C4.97354 44.763 3.51849 43.6355 3.04445 42.2344C2.60192 40.9292 3.06737 39.2416 3.55859 37.4565C3.95959 35.9966 4.3749 34.4895 4.3749 32.9494C4.3749 31.4093 3.95959 29.9036 3.55859 28.4437C3.06593 26.6586 2.60192 24.9724 3.04445 23.6673C3.51849 22.2662 4.9721 21.1387 6.51165 19.9438C7.69459 19.0255 8.91907 18.0757 9.80985 16.8995C10.7207 15.7018 11.2935 14.2749 11.8492 12.8952C12.5538 11.1374 13.2212 9.47838 14.4457 8.62452C15.6687 7.76923 17.5291 7.67038 19.4982 7.5658C21.0335 7.4827 22.6246 7.39818 24.0925 6.93973C25.5003 6.50134 26.8007 5.68903 28.0581 4.90394C29.738 3.85668 31.3248 2.86529 32.9403 2.86529C34.5557 2.86529 36.1439 3.85668 37.8253 4.90681C39.0827 5.69333 40.3816 6.50421 41.7894 6.94259C43.2574 7.39961 44.847 7.48413 46.3837 7.56723C48.3529 7.67181 50.2118 7.77353 51.4348 8.62738C52.6608 9.48411 53.3281 11.1431 54.0327 12.8981C54.5884 14.2792 55.1598 15.7046 56.0707 16.9023C56.9629 18.0771 58.1859 19.0255 59.3674 19.9424C60.9084 21.1387 62.3649 22.2676 62.8389 23.6716C63.2815 24.9739 62.8146 26.6601 62.3234 28.4452C61.9209 29.905 61.5056 31.4122 61.5056 32.9523C61.5056 34.4923 61.9195 35.9995 62.3234 37.4579C62.8162 39.243 63.2815 40.9292 62.8389 42.2344Z" fill="white"/>
<path d="M32.943 10.0081C20.2747 10.0081 10.0054 20.2816 10.0054 32.9538C10.0054 45.6266 20.2747 55.8996 32.943 55.8996C45.6107 55.8996 55.8806 45.6266 55.8806 32.9538C55.8667 20.2869 45.6054 10.022 32.943 10.0081V10.0081ZM32.943 53.7143C21.4811 53.7143 12.1899 44.4198 12.1899 32.9538C12.1899 21.4884 21.4811 12.1934 32.943 12.1934C44.4043 12.1934 53.6961 21.4884 53.6961 32.9538C53.6833 44.4144 44.399 53.702 32.943 53.7143Z" fill="white"/>
<path d="M22.3398 42.0151L42.0006 22.3474L43.5457 23.8924L23.8844 43.5608L22.3398 42.0151Z" fill="white"/>
<path d="M39.4965 35.1392C37.0832 35.1392 35.1274 37.0961 35.1274 39.5098C35.1274 41.9239 37.0832 43.8804 39.4965 43.8804C41.9093 43.8804 43.8656 41.9239 43.8656 39.5098C43.8656 37.0961 41.9093 35.1392 39.4965 35.1392ZM39.4965 41.6951C38.2901 41.6951 37.312 40.7166 37.312 39.5098C37.312 38.3029 38.2901 37.3245 39.4965 37.3245C40.7029 37.3245 41.6811 38.3029 41.6811 39.5098C41.6811 40.7166 40.7029 41.6951 39.4965 41.6951Z" fill="white"/>
<path d="M26.3891 30.7685C28.8019 30.7685 30.7582 28.812 30.7582 26.3979C30.7582 23.9842 28.8019 22.0273 26.3891 22.0273C23.9758 22.0273 22.02 23.9842 22.02 26.3979C22.02 28.812 23.9758 30.7685 26.3891 30.7685ZM26.3891 24.2126C27.5955 24.2126 28.5737 25.191 28.5737 26.3979C28.5737 27.6047 27.5955 28.5832 26.3891 28.5832C25.1827 28.5832 24.2046 27.6047 24.2046 26.3979C24.2046 25.191 25.1827 24.2126 26.3891 24.2126Z" fill="white"/>
</svg>
