<svg width="16" height="22" viewBox="0 0 16 22" fill="none" xmlns="http://www.w3.org/2000/svg">
<path d="M0.5 8.66667H1.65385V0.5H10.3077C13.1923 0.5 15.5 2.83333 15.5 5.75C15.5 8.66667 13.1923 11 10.3077 11H3.96154V13.3333H10.8846V15.6667H3.96154V21.5H1.65385V15.6667H0.5V13.3333H1.65385V11H0.5V8.66667ZM10.3077 2.83333H3.96154V8.66667H10.3077C11.0727 8.66667 11.8065 8.35938 12.3474 7.81239C12.8884 7.26541 13.1923 6.52355 13.1923 5.75C13.1923 4.97645 12.8884 4.23459 12.3474 3.68761C11.8065 3.14062 11.0727 2.83333 10.3077 2.83333Z" fill="black" stroke="black"/>
</svg>
